<svg fill="none" viewBox="0 0 29 29" xmlns="http://www.w3.org/2000/svg"><path d="m10.0002 5h-1.8c-1.12011 0-1.68058 0-2.1084.21799-.37633.19174-.68207.49748-.87381.87381-.21799.42782-.21799.98829-.21799 2.1084v7.6c0 1.1201 0 1.6799.21799 2.1077.19174.3763.49748.6826.87381.8743.4274.2178.98719.2178 2.10511.2178h7.60619c1.1179 0 1.6769 0 2.1043-.2178.3763-.1917.6831-.4983.8748-.8746.2178-.4274.2178-.9866.2178-2.1045v-1.8031m1-5v-5m0 0h-5m5 0-7 7" stroke="#000" stroke-linecap="round" stroke-width="3"/></svg>